<svg width="54" height="54" viewBox="0 0 54 54" fill="none" xmlns="http://www.w3.org/2000/svg">
<path d="M9.84504 16.57C8.89903 16.982 7.71254 17.6275 6.52604 18.646C4.02454 20.794 2.96254 23.3655 2.52254 24.7025C2.20204 25.734 1.90703 27.076 1.86503 28.6545C1.77503 32.0145 2.88004 34.6175 3.59554 35.989C4.21954 37.152 5.81604 39.7345 8.98554 41.4285C14.1155 44.1695 19.234 42.375 20.0875 42.06L17.8895 36.541C17.1815 36.8115 15.706 37.258 13.909 36.9215C10.7055 36.321 9.08753 33.7195 8.81853 33.2705C8.58653 32.872 6.82804 29.733 8.22904 26.2365C9.22904 23.7405 11.2385 22.561 11.856 22.229L9.84504 16.57Z" fill="#87908F"/>
<path d="M10.9668 16.149C11.6188 18.013 12.2708 19.8765 12.9233 21.7405C13.2418 21.62 17.0023 20.273 20.3293 22.623C22.7368 24.3235 24.0478 27.323 23.5293 30.2995C22.8418 34.244 19.3288 35.928 19.0118 36.0735C19.7653 37.8915 20.5188 39.71 21.2723 41.528C21.9128 41.236 22.6213 40.851 23.3498 40.3415C25.2038 39.0445 26.3668 37.512 27.0563 36.401C27.8323 37.6015 29.0043 39.0485 30.7278 40.3115C31.5458 40.911 34.5123 43.025 38.6168 43.098C39.0578 43.106 39.4258 43.0885 39.6853 43.0705C40.7463 42.943 45.2178 42.2695 48.5733 38.354C52.3133 33.9895 51.8793 28.864 51.7508 27.608C51.6668 26.7845 50.9678 20.907 45.7733 17.5385C42.4408 15.3775 39.0473 15.4095 37.7663 15.488C36.5658 15.548 33.9718 15.8465 31.4088 17.625C29.8518 18.7055 28.8583 19.949 28.2718 20.8265L31.0778 28.1695C31.6618 24.9535 33.9928 22.4175 36.9603 21.7575C40.3708 20.9985 42.9988 23.078 43.2458 23.2805C46.0733 25.596 45.9883 29.037 45.9658 29.5735C45.9413 30.157 45.6778 33.136 43.1443 35.279C42.7733 35.5925 40.8508 37.032 38.1333 36.8535C36.2983 36.733 34.9563 35.926 34.2988 35.4485C32.9928 34.5 32.3228 33.3505 30.3278 28.7785C29.2338 26.2715 28.7218 25.004 28.3883 24.206C25.4738 17.233 22.7908 10.352 20.3213 3.5795C18.5088 4.3045 16.6968 5.0295 14.8843 5.7545C16.0748 8.9285 17.2648 12.1025 18.4553 15.2765C17.4848 15.0375 16.6543 14.9785 16.0553 14.9745C14.6393 14.9645 13.5693 15.252 12.9403 15.4255C12.1158 15.6535 11.4468 15.927 10.9668 16.149Z" fill="#5793C9"/>
</svg>
